<mxfile host="app.diagrams.net" agent="Mozilla/5.0 (Windows NT 10.0; Win64; x64) AppleWebKit/537.36 (KHTML, like Gecko) Chrome/130.0.0.0 Safari/537.36" version="24.8.4">
  <diagram name="Page-1" id="zCHdafHyRyZfpqhM1mEc">
    <mxGraphModel dx="1493" dy="1724" grid="1" gridSize="10" guides="1" tooltips="1" connect="1" arrows="1" fold="1" page="1" pageScale="1" pageWidth="850" pageHeight="1100" math="0" shadow="0">
      <root>
        <mxCell id="0" />
        <mxCell id="1" parent="0" />
        <mxCell id="PzbTq-ou7AdBhT5f-LDt-25" style="edgeStyle=orthogonalEdgeStyle;rounded=0;orthogonalLoop=1;jettySize=auto;html=1;exitX=1;exitY=0.5;exitDx=0;exitDy=0;entryX=-0.014;entryY=0.688;entryDx=0;entryDy=0;entryPerimeter=0;" parent="1" source="PzbTq-ou7AdBhT5f-LDt-17" target="PzbTq-ou7AdBhT5f-LDt-23" edge="1">
          <mxGeometry relative="1" as="geometry">
            <mxPoint x="500" y="-945" as="targetPoint" />
          </mxGeometry>
        </mxCell>
        <mxCell id="PzbTq-ou7AdBhT5f-LDt-17" value="&amp;lt;&amp;lt; controller &amp;gt;&amp;gt;&lt;div&gt;Package Handler&lt;/div&gt;" style="swimlane;whiteSpace=wrap;html=1;startSize=30;" parent="1" vertex="1">
          <mxGeometry x="90" y="-1040" width="180" height="190" as="geometry">
            <mxRectangle x="50" y="-260" width="140" height="30" as="alternateBounds" />
          </mxGeometry>
        </mxCell>
        <mxCell id="PzbTq-ou7AdBhT5f-LDt-27" style="edgeStyle=orthogonalEdgeStyle;rounded=0;orthogonalLoop=1;jettySize=auto;html=1;entryX=0.5;entryY=0;entryDx=0;entryDy=0;" parent="1" source="PzbTq-ou7AdBhT5f-LDt-19" target="PzbTq-ou7AdBhT5f-LDt-20" edge="1">
          <mxGeometry relative="1" as="geometry" />
        </mxCell>
        <mxCell id="Mwlxe-qEpdY_oVf0KFiJ-4" style="edgeStyle=orthogonalEdgeStyle;rounded=0;orthogonalLoop=1;jettySize=auto;html=1;" edge="1" parent="1" source="PzbTq-ou7AdBhT5f-LDt-19" target="Mwlxe-qEpdY_oVf0KFiJ-1">
          <mxGeometry relative="1" as="geometry" />
        </mxCell>
        <mxCell id="PzbTq-ou7AdBhT5f-LDt-19" value="&lt;div&gt;&lt;br&gt;&lt;/div&gt;&lt;div&gt;Person&lt;/div&gt;&lt;div&gt;&lt;br&gt;&lt;/div&gt;" style="swimlane;whiteSpace=wrap;html=1;startSize=30;" parent="1" vertex="1">
          <mxGeometry x="510" y="-1040" width="190" height="190" as="geometry">
            <mxRectangle x="50" y="-260" width="140" height="30" as="alternateBounds" />
          </mxGeometry>
        </mxCell>
        <mxCell id="PzbTq-ou7AdBhT5f-LDt-23" value="+ personID: int {key}&lt;div&gt;+ personName: string&lt;/div&gt;&lt;div&gt;+ personPhoneNo: string&lt;/div&gt;&lt;div&gt;+ personEmail: string&lt;/div&gt;&lt;div&gt;+ personAddress: string&lt;/div&gt;" style="text;strokeColor=none;fillColor=none;align=left;verticalAlign=middle;spacingLeft=4;spacingRight=4;overflow=hidden;points=[[0,0.5],[1,0.5]];portConstraint=eastwest;rotatable=0;whiteSpace=wrap;html=1;" parent="PzbTq-ou7AdBhT5f-LDt-19" vertex="1">
          <mxGeometry y="40" width="190" height="80" as="geometry" />
        </mxCell>
        <mxCell id="axoxiXGiB8y4HDm093K_-1" value="" style="endArrow=none;html=1;rounded=0;" parent="PzbTq-ou7AdBhT5f-LDt-19" edge="1">
          <mxGeometry width="50" height="50" relative="1" as="geometry">
            <mxPoint y="160" as="sourcePoint" />
            <mxPoint x="190" y="160" as="targetPoint" />
          </mxGeometry>
        </mxCell>
        <mxCell id="PzbTq-ou7AdBhT5f-LDt-28" style="edgeStyle=orthogonalEdgeStyle;rounded=0;orthogonalLoop=1;jettySize=auto;html=1;entryX=1;entryY=0.5;entryDx=0;entryDy=0;" parent="1" source="PzbTq-ou7AdBhT5f-LDt-20" target="PzbTq-ou7AdBhT5f-LDt-21" edge="1">
          <mxGeometry relative="1" as="geometry">
            <Array as="points">
              <mxPoint x="465" y="-505" />
            </Array>
          </mxGeometry>
        </mxCell>
        <mxCell id="PzbTq-ou7AdBhT5f-LDt-20" value="&lt;div&gt;Manager&lt;/div&gt;" style="swimlane;whiteSpace=wrap;html=1;startSize=30;" parent="1" vertex="1">
          <mxGeometry x="360" y="-790" width="190" height="190" as="geometry">
            <mxRectangle x="50" y="-260" width="140" height="30" as="alternateBounds" />
          </mxGeometry>
        </mxCell>
        <mxCell id="PzbTq-ou7AdBhT5f-LDt-22" value="+ managerID : int {key}&lt;div&gt;+ managerLevel: string&lt;/div&gt;&lt;div&gt;+ managerExperience: string&lt;/div&gt;&lt;div&gt;+ managerPerformance: string&lt;/div&gt;" style="text;strokeColor=none;fillColor=none;align=left;verticalAlign=middle;spacingLeft=4;spacingRight=4;overflow=hidden;points=[[0,0.5],[1,0.5]];portConstraint=eastwest;rotatable=0;whiteSpace=wrap;html=1;" parent="PzbTq-ou7AdBhT5f-LDt-20" vertex="1">
          <mxGeometry x="4" y="55" width="190" height="80" as="geometry" />
        </mxCell>
        <mxCell id="axoxiXGiB8y4HDm093K_-2" value="" style="endArrow=none;html=1;rounded=0;" parent="PzbTq-ou7AdBhT5f-LDt-20" edge="1">
          <mxGeometry width="50" height="50" relative="1" as="geometry">
            <mxPoint y="160" as="sourcePoint" />
            <mxPoint x="190" y="160" as="targetPoint" />
          </mxGeometry>
        </mxCell>
        <mxCell id="PzbTq-ou7AdBhT5f-LDt-21" value="&lt;div&gt;Package&lt;/div&gt;" style="swimlane;whiteSpace=wrap;html=1;startSize=30;" parent="1" vertex="1">
          <mxGeometry x="80" y="-600" width="190" height="190" as="geometry">
            <mxRectangle x="50" y="-260" width="140" height="30" as="alternateBounds" />
          </mxGeometry>
        </mxCell>
        <mxCell id="PzbTq-ou7AdBhT5f-LDt-24" value="+ packageID: int {key}&lt;div&gt;+ packageName: string&lt;/div&gt;&lt;div&gt;+packagePrice: double&lt;/div&gt;&lt;div&gt;+ packageDescription: string&lt;/div&gt;" style="text;strokeColor=none;fillColor=none;align=left;verticalAlign=middle;spacingLeft=4;spacingRight=4;overflow=hidden;points=[[0,0.5],[1,0.5]];portConstraint=eastwest;rotatable=0;whiteSpace=wrap;html=1;" parent="PzbTq-ou7AdBhT5f-LDt-21" vertex="1">
          <mxGeometry y="30" width="170" height="90" as="geometry" />
        </mxCell>
        <mxCell id="axoxiXGiB8y4HDm093K_-3" value="" style="endArrow=none;html=1;rounded=0;" parent="PzbTq-ou7AdBhT5f-LDt-21" edge="1">
          <mxGeometry width="50" height="50" relative="1" as="geometry">
            <mxPoint y="160" as="sourcePoint" />
            <mxPoint x="190" y="160" as="targetPoint" />
          </mxGeometry>
        </mxCell>
        <mxCell id="99qLNWGt9-mDH3ZlaSx0-1" value="" style="endArrow=none;html=1;rounded=0;" parent="1" edge="1">
          <mxGeometry width="50" height="50" relative="1" as="geometry">
            <mxPoint x="90" y="-880" as="sourcePoint" />
            <mxPoint x="270" y="-880" as="targetPoint" />
          </mxGeometry>
        </mxCell>
        <mxCell id="Mwlxe-qEpdY_oVf0KFiJ-5" style="edgeStyle=orthogonalEdgeStyle;rounded=0;orthogonalLoop=1;jettySize=auto;html=1;" edge="1" parent="1" source="Mwlxe-qEpdY_oVf0KFiJ-1">
          <mxGeometry relative="1" as="geometry">
            <mxPoint x="270" y="-480" as="targetPoint" />
            <Array as="points">
              <mxPoint x="735" y="-480" />
            </Array>
          </mxGeometry>
        </mxCell>
        <mxCell id="Mwlxe-qEpdY_oVf0KFiJ-1" value="&lt;div&gt;Customer&lt;/div&gt;" style="swimlane;whiteSpace=wrap;html=1;startSize=30;" vertex="1" parent="1">
          <mxGeometry x="640" y="-790" width="190" height="190" as="geometry">
            <mxRectangle x="50" y="-260" width="140" height="30" as="alternateBounds" />
          </mxGeometry>
        </mxCell>
        <mxCell id="Mwlxe-qEpdY_oVf0KFiJ-2" value="+ customerID : int {key}&lt;div&gt;+ customeRating: string&lt;/div&gt;&lt;div&gt;&lt;br&gt;&lt;/div&gt;&lt;div&gt;&lt;br&gt;&lt;/div&gt;" style="text;strokeColor=none;fillColor=none;align=left;verticalAlign=middle;spacingLeft=4;spacingRight=4;overflow=hidden;points=[[0,0.5],[1,0.5]];portConstraint=eastwest;rotatable=0;whiteSpace=wrap;html=1;" vertex="1" parent="Mwlxe-qEpdY_oVf0KFiJ-1">
          <mxGeometry y="30" width="190" height="80" as="geometry" />
        </mxCell>
        <mxCell id="Mwlxe-qEpdY_oVf0KFiJ-3" value="" style="endArrow=none;html=1;rounded=0;" edge="1" parent="Mwlxe-qEpdY_oVf0KFiJ-1">
          <mxGeometry width="50" height="50" relative="1" as="geometry">
            <mxPoint y="160" as="sourcePoint" />
            <mxPoint x="190" y="160" as="targetPoint" />
          </mxGeometry>
        </mxCell>
      </root>
    </mxGraphModel>
  </diagram>
</mxfile>
